<mxfile host="app.diagrams.net" modified="2024-04-18T08:31:13.963Z" agent="Mozilla/5.0 (Windows NT 10.0; Win64; x64) AppleWebKit/537.36 (KHTML, like Gecko) Chrome/122.0.0.0 Safari/537.36 Edg/122.0.0.0" etag="D63b0CiB4mSYy68gIyrA" version="24.2.5" type="github">
  <diagram name="第 1 页" id="S16d00lvsxIatNt262x6">
    <mxGraphModel dx="1002" dy="577" grid="1" gridSize="10" guides="1" tooltips="1" connect="1" arrows="1" fold="1" page="1" pageScale="1" pageWidth="827" pageHeight="1169" math="0" shadow="0">
      <root>
        <mxCell id="0" />
        <mxCell id="1" parent="0" />
        <mxCell id="2Vj6fBxnY4hKCpjUh4QR-1" value="" style="image;aspect=fixed;perimeter=ellipsePerimeter;html=1;align=center;shadow=0;dashed=0;spacingTop=3;image=img/lib/active_directory/laptop_client.svg;" vertex="1" parent="1">
          <mxGeometry x="190" y="300" width="50" height="55.56" as="geometry" />
        </mxCell>
        <mxCell id="2Vj6fBxnY4hKCpjUh4QR-2" value="" style="image;aspect=fixed;perimeter=ellipsePerimeter;html=1;align=center;shadow=0;dashed=0;spacingTop=3;image=img/lib/active_directory/windows_server.svg;" vertex="1" parent="1">
          <mxGeometry x="563.76" y="280" width="52.48" height="64" as="geometry" />
        </mxCell>
        <mxCell id="2Vj6fBxnY4hKCpjUh4QR-3" value="" style="image;aspect=fixed;perimeter=ellipsePerimeter;html=1;align=center;shadow=0;dashed=0;spacingTop=3;image=img/lib/active_directory/generic_server.svg;" vertex="1" parent="1">
          <mxGeometry x="388.24" y="190" width="33.6" height="60" as="geometry" />
        </mxCell>
        <mxCell id="2Vj6fBxnY4hKCpjUh4QR-4" value="" style="image;aspect=fixed;perimeter=ellipsePerimeter;html=1;align=center;shadow=0;dashed=0;spacingTop=3;image=img/lib/active_directory/generic_server.svg;" vertex="1" parent="1">
          <mxGeometry x="388.32" y="344" width="35.84" height="64" as="geometry" />
        </mxCell>
        <mxCell id="2Vj6fBxnY4hKCpjUh4QR-8" value="Client" style="text;html=1;align=center;verticalAlign=middle;whiteSpace=wrap;rounded=0;" vertex="1" parent="1">
          <mxGeometry x="170" y="346.78" width="60" height="30" as="geometry" />
        </mxCell>
        <mxCell id="2Vj6fBxnY4hKCpjUh4QR-9" value="Server" style="text;html=1;align=center;verticalAlign=middle;whiteSpace=wrap;rounded=0;" vertex="1" parent="1">
          <mxGeometry x="560" y="325.56" width="60" height="30" as="geometry" />
        </mxCell>
        <mxCell id="2Vj6fBxnY4hKCpjUh4QR-10" value="Proxy1" style="text;html=1;align=center;verticalAlign=middle;whiteSpace=wrap;rounded=0;" vertex="1" parent="1">
          <mxGeometry x="374" y="250" width="60" height="30" as="geometry" />
        </mxCell>
        <mxCell id="2Vj6fBxnY4hKCpjUh4QR-11" value="Proxy2" style="text;html=1;align=center;verticalAlign=middle;whiteSpace=wrap;rounded=0;" vertex="1" parent="1">
          <mxGeometry x="374" y="400" width="60" height="30" as="geometry" />
        </mxCell>
        <mxCell id="2Vj6fBxnY4hKCpjUh4QR-12" value="" style="endArrow=classic;html=1;rounded=0;exitX=1;exitY=0.5;exitDx=0;exitDy=0;" edge="1" parent="1" source="2Vj6fBxnY4hKCpjUh4QR-1">
          <mxGeometry width="50" height="50" relative="1" as="geometry">
            <mxPoint x="336" y="280" as="sourcePoint" />
            <mxPoint x="386" y="230" as="targetPoint" />
          </mxGeometry>
        </mxCell>
        <mxCell id="2Vj6fBxnY4hKCpjUh4QR-13" value="f" style="rounded=0;whiteSpace=wrap;html=1;rotation=-34;" vertex="1" parent="1">
          <mxGeometry x="240" y="290" width="30" height="20" as="geometry" />
        </mxCell>
        <mxCell id="2Vj6fBxnY4hKCpjUh4QR-14" value="e" style="rounded=0;whiteSpace=wrap;html=1;rotation=-34;" vertex="1" parent="1">
          <mxGeometry x="270" y="270" width="30" height="20" as="geometry" />
        </mxCell>
        <mxCell id="2Vj6fBxnY4hKCpjUh4QR-15" value="d" style="rounded=0;whiteSpace=wrap;html=1;rotation=-34;" vertex="1" parent="1">
          <mxGeometry x="300" y="250" width="30" height="20" as="geometry" />
        </mxCell>
        <mxCell id="2Vj6fBxnY4hKCpjUh4QR-16" value="c" style="rounded=0;whiteSpace=wrap;html=1;rotation=-34;" vertex="1" parent="1">
          <mxGeometry x="330" y="230" width="30" height="20" as="geometry" />
        </mxCell>
        <mxCell id="2Vj6fBxnY4hKCpjUh4QR-21" value="" style="endArrow=classic;html=1;rounded=0;entryX=0;entryY=0.5;entryDx=0;entryDy=0;" edge="1" parent="1" target="2Vj6fBxnY4hKCpjUh4QR-2">
          <mxGeometry width="50" height="50" relative="1" as="geometry">
            <mxPoint x="420" y="230" as="sourcePoint" />
            <mxPoint x="440" y="330" as="targetPoint" />
          </mxGeometry>
        </mxCell>
        <mxCell id="2Vj6fBxnY4hKCpjUh4QR-35" value="b" style="rounded=0;whiteSpace=wrap;html=1;rotation=30;" vertex="1" parent="1">
          <mxGeometry x="464" y="235" width="30" height="20" as="geometry" />
        </mxCell>
        <mxCell id="2Vj6fBxnY4hKCpjUh4QR-41" value="a" style="rounded=0;whiteSpace=wrap;html=1;rotation=30;" vertex="1" parent="1">
          <mxGeometry x="510" y="260" width="30" height="20" as="geometry" />
        </mxCell>
        <mxCell id="2Vj6fBxnY4hKCpjUh4QR-44" value="" style="endArrow=classic;html=1;rounded=0;entryX=1;entryY=1;entryDx=0;entryDy=0;" edge="1" parent="1" target="2Vj6fBxnY4hKCpjUh4QR-3">
          <mxGeometry width="50" height="50" relative="1" as="geometry">
            <mxPoint x="560" y="320" as="sourcePoint" />
            <mxPoint x="380" y="330" as="targetPoint" />
          </mxGeometry>
        </mxCell>
        <mxCell id="2Vj6fBxnY4hKCpjUh4QR-45" value="Proxy = 2" style="rounded=0;whiteSpace=wrap;html=1;rotation=30;" vertex="1" parent="1">
          <mxGeometry x="439" y="284" width="80" height="20" as="geometry" />
        </mxCell>
      </root>
    </mxGraphModel>
  </diagram>
</mxfile>
